Genre:Action | Adventure | Fantasy
Language:English 
http://www.imdb.com/title/tt0948470/
Source:26K/CM8 Thanks!
Encoder:Tony

Format : AVI
Format/Info : Audio Video Interleave
File size : 1.07 GiB
Duration : 2h 3mn
Overall bit rate : 1 246 Kbps

Video
ID : 0
Format : MPEG-4 Visual
Format profile : Advanced Simple@L5
Format settings, BVOP : 1
Format settings, QPel : No
Format settings, GMC : No warppoints
Format settings, Matrix : Default (H.263)
Codec ID : XVID
Codec ID/Hint : XviD
Duration : 2h 3mn
Bit rate : 1 044 Kbps
Width : 640 pixels
Height : 256 pixels
Display aspect ratio : 2.500
Frame rate : 25.000 fps
Color space : YUV
Chroma subsampling : 4:2:0
Bit depth : 8 bits
Scan type : Progressive
Compression mode : Lossy
Bits/(Pixel*Frame) : 0.255
Stream size : 921 MiB (84%)
Writing library : XviD 1.2.1 (UTC 2008-12-04)

Audio
ID : 1
Format : AC-3
Format/Info : Audio Coding 3
Mode extension : CM (complete main)
Format settings, Endianness : Big
Codec ID : 2000
Duration : 2h 3mn
Bit rate mode : Constant
Bit rate : 192 Kbps
Channel(s) : 2 channels
Channel positions : Front: L R
Sampling rate : 48.0 KHz
Bit depth : 16 bits
Compression mode : Lossy
Stream size : 169 MiB (15%)
Alignment : Aligned on interleaves
Interleave, duration : 40 ms (1.00 video frame)
Interleave, preload duration : 512 ms


Plot:
Peter Parker finds a clue that might help him understand why his parents disappeared when he was young. His path puts him on a collision course with Dr. Curt Connors, his father's former partner.
 
http://img405.imageshack.us/img405/7008/vlcsnap2012071220h40m12.png 
http://img833.imageshack.us/img833/4253/vlcsnap2012071220h40m35.png 
http://img441.imageshack.us/img441/940/vlcsnap2012071220h40m19.png 
http://img833.imageshack.us/img833/4253/vlcsnap2012071220h40m35.png